<svg xmlns="http://www.w3.org/2000/svg" version="1.1" xmlns:xlink="http://www.w3.org/1999/xlink" xmlns:svgjs="http://svgjs.dev/svgjs" width="1500" height="939" viewBox="0 0 1500 939"><g transform="matrix(1,0,0,1,-0.9090909090909918,151.4776017839688)"><svg viewBox="0 0 396 248" data-background-color="#000000" preserveAspectRatio="xMidYMid meet" height="939" width="1500" xmlns="http://www.w3.org/2000/svg" xmlns:xlink="http://www.w3.org/1999/xlink"><g id="tight-bounds" transform="matrix(1,0,0,1,0.2400000000000091,0.4000000000000057)"><svg viewBox="0 0 395.52 247.2" height="247.2" width="395.52"><rect width="395.52" height="247.2" fill="url(#186ae029-7776-4d5c-9a2c-50f34cd1352a)" mask="url(#4356a3a0-9169-4908-9f0f-74ca71d40f86)" data-fill-palette-color="tertiary"></rect><g><svg></svg></g><g><svg viewBox="0 0 395.52 247.2" height="247.2" width="395.52"><g transform="matrix(1,0,0,1,75.54432,86.48518009907387)"><svg viewBox="0 0 244.43135999999998 74.22963980185224" height="74.22963980185224" width="244.43135999999998"><g><svg viewBox="0 0 244.43135999999998 74.22963980185224" height="74.22963980185224" width="244.43135999999998"><g><svg viewBox="0 0 244.43135999999998 74.22963980185224" height="74.22963980185224" width="244.43135999999998"><g><svg viewBox="0 0 244.43135999999998 74.22963980185224" height="74.22963980185224" width="244.43135999999998"><g id="textblocktransform"><svg viewBox="0 0 244.43135999999998 74.22963980185224" height="74.22963980185224" width="244.43135999999998" id="textblock"><g><svg viewBox="0 0 244.43135999999998 74.22963980185224" height="74.22963980185224" width="244.43135999999998"><g transform="matrix(1,0,0,1,0,0)"><svg width="244.43135999999998" viewBox="1.46 -34.42 113.35000000000001 34.42" height="74.22963980185224" data-palette-color="url(#74203d59-c5d5-4b42-915b-7c3f391c7698)"></svg></g></svg></g></svg></g></svg></g><g></g></svg></g></svg></g></svg></g><g><path d="M88.438 68.961A122.216 122.216 0 0 1 307.082 68.961L300.388 68.961A115.522 115.522 0 0 0 95.132 68.961L88.438 68.961M88.438 178.239A122.216 122.216 0 0 0 307.082 178.239L300.388 178.239A115.522 115.522 0 0 1 95.132 178.239L88.438 178.239" fill="url(#186ae029-7776-4d5c-9a2c-50f34cd1352a)" stroke="transparent" data-fill-palette-color="tertiary"></path></g></svg></g><defs></defs><mask id="37789744-e038-4841-80ac-708a8e3e00c6"><g id="SvgjsG10166"><svg viewBox="0 0 395.52 247.2" height="247.2" width="395.52"><g><svg></svg></g><g><svg viewBox="0 0 395.52 247.2" height="247.2" width="395.52"><g transform="matrix(1,0,0,1,75.54432,86.48518009907387)"><svg viewBox="0 0 244.43135999999998 74.22963980185224" height="74.22963980185224" width="244.43135999999998"><g><svg viewBox="0 0 244.43135999999998 74.22963980185224" height="74.22963980185224" width="244.43135999999998"><g><svg viewBox="0 0 244.43135999999998 74.22963980185224" height="74.22963980185224" width="244.43135999999998"><g><svg viewBox="0 0 244.43135999999998 74.22963980185224" height="74.22963980185224" width="244.43135999999998"><g id="SvgjsG10165"><svg viewBox="0 0 244.43135999999998 74.22963980185224" height="74.22963980185224" width="244.43135999999998" id="SvgjsSvg10164"><g><svg viewBox="0 0 244.43135999999998 74.22963980185224" height="74.22963980185224" width="244.43135999999998"><g transform="matrix(1,0,0,1,0,0)"><svg width="244.43135999999998" viewBox="1.46 -34.42 113.35000000000001 34.42" height="74.22963980185224" data-palette-color="url(#74203d59-c5d5-4b42-915b-7c3f391c7698)"><path d="M35.57-30.18L35.57-4.42Q35.57-1.12 40.14-0.98L40.14-0.98Q40.33-0.98 40.33-0.78L40.33-0.78 40.33-0.2Q40.33 0 40.14 0L40.14 0 24.61 0Q24.41 0 24.41-0.2L24.41-0.2 24.41-0.78Q24.41-0.98 25.63-0.98 26.86-0.98 28.42-1.51L28.42-1.51Q30.81-2.29 30.81-4.15L30.81-4.15 30.81-15.8Q30.81-16.04 30.74-16.11 30.66-16.19 30.42-16.19L30.42-16.19 11.18-16.19Q10.94-16.19 10.86-16.11 10.79-16.04 10.79-15.8L10.79-15.8 10.79-3.91Q10.79-0.98 15.11-0.98L15.11-0.98Q15.31-0.98 15.31-0.78L15.31-0.78 15.31-0.2Q15.31 0 15.14 0L15.14 0 1.66 0Q1.46 0 1.46-0.2L1.46-0.2 1.46-0.78Q1.46-0.98 1.95-0.98L1.95-0.98Q6.03-0.98 6.03-4.47L6.03-4.47 6.03-30.52Q6.03-33.37 2.64-33.54L2.64-33.54Q2.12-33.57 2.12-33.76L2.12-33.76 2.12-34.23Q2.12-34.42 2.29-34.42L2.29-34.42 14.55-34.42Q14.75-34.42 14.75-34.23L14.75-34.23 14.75-33.76Q14.75-33.62 14.28-33.62L14.28-33.62Q10.79-33.62 10.79-30.18L10.79-30.18 10.79-18.9Q10.79-18.65 10.86-18.58 10.94-18.51 11.18-18.51L11.18-18.51 30.42-18.51Q30.66-18.51 30.74-18.58 30.81-18.65 30.81-18.9L30.81-18.9 30.81-30.57Q30.76-30.79 30.75-30.97 30.74-31.15 30.66-31.54L30.66-31.54Q30.49-32.37 28.93-32.9 27.37-33.42 25.39-33.57L25.39-33.57Q25.2-33.57 25.2-33.76L25.2-33.76 25.2-34.23Q25.2-34.42 25.37-34.42L25.37-34.42 39.45-34.42Q39.65-34.42 39.65-34.23L39.65-34.23 39.65-33.76Q39.65-33.62 39.18-33.62L39.18-33.62Q35.57-33.62 35.57-30.18L35.57-30.18ZM54.03-0.98L54.03-0.98Q54.17-0.98 54.17-0.78L54.17-0.78 54.17-0.2Q54.17 0 54.03 0L54.03 0 42.62 0Q42.43 0 42.43-0.2L42.43-0.2 42.43-0.78Q42.43-0.98 42.62-0.98L42.62-0.98Q46.63-0.98 46.97-4.42L46.97-4.42Q47.07-5.42 47.18-7.75 47.29-10.08 47.82-17.79 48.36-25.49 48.36-30.25L48.36-30.25 48.36-31.15Q48.36-32.13 47.25-32.79 46.14-33.45 45.63-33.45 45.11-33.45 45.11-33.64L45.11-33.64 45.11-34.23Q45.11-34.42 45.31-34.42L45.31-34.42 52.37-34.42Q52.83-34.35 53.12-33.89L53.12-33.89 64.57-8.37Q64.69-8.2 64.77-8.08 64.84-7.96 65.13-7.97 65.43-7.98 65.57-8.4L65.57-8.4 76.9-33.45Q77.41-34.42 77.83-34.42L77.83-34.42 84.93-34.42Q85.13-34.42 85.13-34.23L85.13-34.23 85.13-33.64Q85.13-33.45 85.01-33.45L85.01-33.45Q84.27-33.45 83.2-32.96L83.2-32.96Q81.56-32.23 81.56-30.79L81.56-30.79 83.03-3.81Q83.08-2.54 84.35-1.76 85.62-0.98 87.67-0.98L87.67-0.98Q87.86-0.98 87.86-0.78L87.86-0.78 87.86-0.2Q87.86 0 87.67 0L87.67 0 73.8 0Q73.61 0 73.61-0.2L73.61-0.2 73.61-0.78Q73.61-0.98 73.8-0.98L73.8-0.98Q78.17-0.98 78.17-3.1L78.17-3.1 76.88-26.42Q76.85-26.66 76.74-26.66 76.63-26.66 76.56-26.44L76.56-26.44 64.43-0.17Q64.33 0 63.86 0 63.4 0 63.33-0.2L63.33-0.2 51.36-26.51Q51.22-26.86 51.08-26.86 50.95-26.86 50.95-26.32L50.95-26.32Q50.95-25.2 50.36-15.72 49.78-6.25 49.78-3.91L49.78-3.91 49.78-2.91Q50.07-1.51 52.54-1.1L52.54-1.1Q53.24-0.98 54.03-0.98ZM100.26-19.75L109.83-19.75Q113.11-19.75 113.11-22.95L113.11-22.95Q113.11-23.14 113.3-23.14L113.3-23.14 113.89-23.14Q114.08-23.14 114.08-22.95L114.08-22.95 114.08-13.87Q114.08-13.67 113.89-13.67L113.89-13.67 113.3-13.67Q113.11-13.67 113.11-13.87L113.11-13.87Q113.11-16.11 111.84-16.97L111.84-16.97Q111.15-17.43 109.88-17.43L109.88-17.43 100.26-17.43Q99.68-17.43 99.68-16.77L99.68-16.77 99.68-4.22Q99.68-2.56 101.67-1.77 103.66-0.98 104.18-0.98 104.71-0.98 104.71-0.78L104.71-0.78 104.71-0.2Q104.71 0 104.51 0L104.51 0 91.18 0Q90.99 0 90.99-0.2L90.99-0.2 90.99-0.78Q90.99-0.98 91.4-0.98 91.82-0.98 92.7-1.37 93.57-1.76 94.25-2.53 94.92-3.3 94.92-4.39L94.92-4.39 94.92-30.76Q94.92-32.35 93.23-33.03L93.23-33.03Q92.26-33.45 91.3-33.45L91.3-33.45 91.21-33.45Q91.01-33.45 91.01-33.64L91.01-33.64 91.01-34.23Q91.01-34.42 91.21-34.42L91.21-34.42 114.23-34.42Q114.52-34.38 114.67-34.29 114.81-34.2 114.81-33.86L114.81-33.86 114.81-27.95Q114.81-27.66 114.73-27.59 114.64-27.51 114.42-27.51L114.42-27.51 114.13-27.51Q114.08-27.54 113.8-28.85 113.52-30.15 112.93-30.86L112.93-30.86Q111.93-31.93 110.66-32.06L110.66-32.06Q110.15-32.1 109.42-32.1L109.42-32.1 100.17-32.1Q99.68-32.1 99.68-31.62L99.68-31.62 99.68-20.31Q99.68-19.75 100.26-19.75L100.26-19.75Z" opacity="1" transform="matrix(1,0,0,1,0,0)" fill="white" class="wordmark-text-0" id="SvgjsPath10163"></path></svg></g></svg></g></svg></g></svg></g><g></g></svg></g></svg></g></svg></g><g><path d="M88.438 68.961A122.216 122.216 0 0 1 307.082 68.961L300.388 68.961A115.522 115.522 0 0 0 95.132 68.961L88.438 68.961M88.438 178.239A122.216 122.216 0 0 0 307.082 178.239L300.388 178.239A115.522 115.522 0 0 1 95.132 178.239L88.438 178.239" fill="black" stroke="transparent"></path></g></svg></g><defs><mask></mask></defs></svg><rect width="395.52" height="247.2" fill="black" stroke="none" visibility="hidden"></rect></g></mask><linearGradient x1="0.054" x2="0.941" y1="0.5" y2="0.5" id="74203d59-c5d5-4b42-915b-7c3f391c7698"><stop stop-color="#26282a" offset="0"></stop><stop stop-color="#9e9fa0" offset="0.498"></stop><stop stop-color="#26282a" offset="1"></stop></linearGradient><rect width="395.52" height="247.2" fill="url(#74203d59-c5d5-4b42-915b-7c3f391c7698)" mask="url(#37789744-e038-4841-80ac-708a8e3e00c6)" data-fill-palette-color="primary"></rect><mask id="4356a3a0-9169-4908-9f0f-74ca71d40f86"><g id="SvgjsG10189"><svg viewBox="0 0 395.52 247.2" height="247.2" width="395.52"><g><svg></svg></g><g><svg viewBox="0 0 395.52 247.2" height="247.2" width="395.52"><g transform="matrix(1,0,0,1,75.54432,86.48518009907387)"><svg viewBox="0 0 244.43135999999998 74.22963980185224" height="74.22963980185224" width="244.43135999999998"><g><svg viewBox="0 0 244.43135999999998 74.22963980185224" height="74.22963980185224" width="244.43135999999998"><g><svg viewBox="0 0 244.43135999999998 74.22963980185224" height="74.22963980185224" width="244.43135999999998"><g><svg viewBox="0 0 244.43135999999998 74.22963980185224" height="74.22963980185224" width="244.43135999999998"><g id="SvgjsG10188"><svg viewBox="0 0 244.43135999999998 74.22963980185224" height="74.22963980185224" width="244.43135999999998" id="SvgjsSvg10187"><g><svg viewBox="0 0 244.43135999999998 74.22963980185224" height="74.22963980185224" width="244.43135999999998"><g transform="matrix(1,0,0,1,0,0)"><svg width="244.43135999999998" viewBox="1.46 -34.42 113.35000000000001 34.42" height="74.22963980185224" data-palette-color="url(#74203d59-c5d5-4b42-915b-7c3f391c7698)"></svg></g></svg></g></svg></g></svg></g><g></g></svg></g></svg></g></svg></g><g><path d="M88.438 68.961A122.216 122.216 0 0 1 307.082 68.961L300.388 68.961A115.522 115.522 0 0 0 95.132 68.961L88.438 68.961M88.438 178.239A122.216 122.216 0 0 0 307.082 178.239L300.388 178.239A115.522 115.522 0 0 1 95.132 178.239L88.438 178.239" fill="white" stroke="transparent"></path></g></svg></g><defs><mask></mask></defs><mask><g id="SvgjsG10186"><svg viewBox="0 0 395.52 247.2" height="247.2" width="395.52"><g><svg></svg></g><g><svg viewBox="0 0 395.52 247.2" height="247.2" width="395.52"><g transform="matrix(1,0,0,1,75.54432,86.48518009907387)"><svg viewBox="0 0 244.43135999999998 74.22963980185224" height="74.22963980185224" width="244.43135999999998"><g><svg viewBox="0 0 244.43135999999998 74.22963980185224" height="74.22963980185224" width="244.43135999999998"><g><svg viewBox="0 0 244.43135999999998 74.22963980185224" height="74.22963980185224" width="244.43135999999998"><g><svg viewBox="0 0 244.43135999999998 74.22963980185224" height="74.22963980185224" width="244.43135999999998"><g id="SvgjsG10185"><svg viewBox="0 0 244.43135999999998 74.22963980185224" height="74.22963980185224" width="244.43135999999998" id="SvgjsSvg10184"><g><svg viewBox="0 0 244.43135999999998 74.22963980185224" height="74.22963980185224" width="244.43135999999998"><g transform="matrix(1,0,0,1,0,0)"><svg width="244.43135999999998" viewBox="1.46 -34.42 113.35000000000001 34.42" height="74.22963980185224" data-palette-color="url(#74203d59-c5d5-4b42-915b-7c3f391c7698)"><path d="M35.57-30.18L35.57-4.42Q35.57-1.12 40.14-0.98L40.14-0.98Q40.33-0.98 40.33-0.78L40.33-0.78 40.33-0.2Q40.33 0 40.14 0L40.14 0 24.61 0Q24.41 0 24.41-0.2L24.41-0.2 24.41-0.78Q24.41-0.98 25.63-0.98 26.86-0.98 28.42-1.51L28.42-1.51Q30.81-2.29 30.81-4.15L30.81-4.15 30.81-15.8Q30.81-16.04 30.74-16.11 30.66-16.19 30.42-16.19L30.42-16.19 11.18-16.19Q10.94-16.19 10.86-16.11 10.79-16.04 10.79-15.8L10.79-15.8 10.79-3.91Q10.79-0.98 15.11-0.98L15.11-0.98Q15.31-0.98 15.31-0.78L15.31-0.78 15.31-0.2Q15.31 0 15.14 0L15.14 0 1.66 0Q1.46 0 1.46-0.2L1.46-0.2 1.46-0.78Q1.46-0.98 1.95-0.98L1.95-0.98Q6.03-0.98 6.03-4.47L6.03-4.47 6.03-30.52Q6.03-33.37 2.64-33.54L2.64-33.54Q2.12-33.57 2.12-33.76L2.12-33.76 2.12-34.23Q2.12-34.42 2.29-34.42L2.29-34.42 14.55-34.42Q14.75-34.42 14.75-34.23L14.75-34.23 14.75-33.76Q14.75-33.62 14.28-33.62L14.28-33.62Q10.79-33.62 10.79-30.18L10.79-30.18 10.79-18.9Q10.79-18.65 10.86-18.58 10.94-18.51 11.18-18.51L11.18-18.51 30.42-18.51Q30.66-18.51 30.74-18.58 30.81-18.65 30.81-18.9L30.81-18.9 30.81-30.57Q30.76-30.79 30.75-30.97 30.74-31.15 30.66-31.54L30.66-31.54Q30.49-32.37 28.93-32.9 27.37-33.42 25.39-33.57L25.39-33.57Q25.2-33.57 25.2-33.76L25.2-33.76 25.2-34.23Q25.2-34.42 25.37-34.42L25.37-34.42 39.45-34.42Q39.65-34.42 39.65-34.23L39.65-34.23 39.65-33.76Q39.65-33.62 39.18-33.62L39.18-33.62Q35.57-33.62 35.57-30.18L35.57-30.18ZM54.03-0.98L54.03-0.98Q54.17-0.98 54.17-0.78L54.17-0.78 54.17-0.2Q54.17 0 54.03 0L54.03 0 42.62 0Q42.43 0 42.43-0.2L42.43-0.2 42.43-0.78Q42.43-0.98 42.62-0.98L42.62-0.98Q46.63-0.98 46.97-4.42L46.97-4.42Q47.07-5.42 47.18-7.75 47.29-10.08 47.82-17.79 48.36-25.49 48.36-30.25L48.36-30.25 48.36-31.15Q48.36-32.13 47.25-32.79 46.14-33.45 45.63-33.45 45.11-33.45 45.11-33.64L45.11-33.64 45.11-34.23Q45.11-34.42 45.31-34.42L45.31-34.42 52.37-34.42Q52.83-34.35 53.12-33.89L53.12-33.89 64.57-8.37Q64.69-8.2 64.77-8.08 64.84-7.96 65.13-7.97 65.43-7.98 65.57-8.4L65.57-8.4 76.9-33.45Q77.41-34.42 77.83-34.42L77.83-34.42 84.93-34.42Q85.13-34.42 85.13-34.23L85.13-34.23 85.13-33.64Q85.13-33.45 85.01-33.45L85.01-33.45Q84.27-33.45 83.2-32.96L83.2-32.96Q81.56-32.23 81.56-30.79L81.56-30.79 83.03-3.81Q83.08-2.54 84.35-1.76 85.62-0.98 87.67-0.98L87.67-0.98Q87.86-0.98 87.86-0.78L87.86-0.78 87.86-0.2Q87.86 0 87.67 0L87.67 0 73.8 0Q73.61 0 73.61-0.2L73.61-0.2 73.61-0.78Q73.61-0.98 73.8-0.98L73.8-0.98Q78.17-0.98 78.17-3.1L78.17-3.1 76.88-26.42Q76.85-26.66 76.74-26.66 76.63-26.66 76.56-26.44L76.56-26.44 64.43-0.17Q64.33 0 63.86 0 63.4 0 63.33-0.2L63.33-0.2 51.36-26.51Q51.22-26.86 51.08-26.86 50.95-26.86 50.95-26.32L50.95-26.32Q50.95-25.2 50.36-15.72 49.78-6.25 49.78-3.91L49.78-3.91 49.78-2.91Q50.07-1.51 52.54-1.1L52.54-1.1Q53.24-0.98 54.03-0.98ZM100.26-19.75L109.83-19.75Q113.11-19.75 113.11-22.95L113.11-22.95Q113.11-23.14 113.3-23.14L113.3-23.14 113.89-23.14Q114.08-23.14 114.08-22.95L114.08-22.95 114.08-13.87Q114.08-13.67 113.89-13.67L113.89-13.67 113.3-13.67Q113.11-13.67 113.11-13.87L113.11-13.87Q113.11-16.11 111.84-16.97L111.84-16.97Q111.15-17.43 109.88-17.43L109.88-17.43 100.26-17.43Q99.68-17.43 99.68-16.77L99.68-16.77 99.68-4.22Q99.68-2.56 101.67-1.77 103.66-0.98 104.18-0.98 104.71-0.98 104.71-0.78L104.71-0.78 104.71-0.2Q104.71 0 104.51 0L104.51 0 91.18 0Q90.99 0 90.99-0.2L90.99-0.2 90.99-0.78Q90.99-0.98 91.4-0.98 91.82-0.98 92.7-1.37 93.57-1.76 94.25-2.53 94.92-3.3 94.92-4.39L94.92-4.39 94.92-30.76Q94.92-32.35 93.23-33.03L93.23-33.03Q92.26-33.45 91.3-33.45L91.3-33.45 91.21-33.45Q91.01-33.45 91.01-33.64L91.01-33.64 91.01-34.23Q91.01-34.42 91.21-34.42L91.21-34.42 114.23-34.42Q114.52-34.38 114.67-34.29 114.81-34.2 114.81-33.86L114.81-33.86 114.81-27.95Q114.81-27.66 114.73-27.59 114.64-27.51 114.42-27.51L114.42-27.51 114.13-27.51Q114.08-27.54 113.8-28.85 113.52-30.15 112.93-30.86L112.93-30.86Q111.93-31.93 110.66-32.06L110.66-32.06Q110.15-32.1 109.42-32.1L109.42-32.1 100.17-32.1Q99.68-32.1 99.68-31.62L99.68-31.62 99.68-20.31Q99.68-19.75 100.26-19.75L100.26-19.75Z" opacity="1" transform="matrix(1,0,0,1,0,0)" fill="black" class="wordmark-text-0" id="SvgjsPath10183"></path></svg></g></svg></g></svg></g></svg></g><g></g></svg></g></svg></g></svg></g><g><path d="M88.438 68.961A122.216 122.216 0 0 1 307.082 68.961L300.388 68.961A115.522 115.522 0 0 0 95.132 68.961L88.438 68.961M88.438 178.239A122.216 122.216 0 0 0 307.082 178.239L300.388 178.239A115.522 115.522 0 0 1 95.132 178.239L88.438 178.239" fill="black" stroke="transparent"></path></g></svg></g><defs><mask></mask></defs></svg><rect width="395.52" height="247.2" fill="black" stroke="none" visibility="hidden"></rect></g></mask></svg><rect width="395.52" height="247.2" fill="black" stroke="none" visibility="hidden"></rect></g></mask><linearGradient x1="0.054" x2="0.941" y1="0.5" y2="0.5" id="186ae029-7776-4d5c-9a2c-50f34cd1352a"><stop stop-color="#26282a" offset="0"></stop><stop stop-color="#9e9fa0" offset="0.498"></stop><stop stop-color="#26282a" offset="1"></stop></linearGradient></svg><rect width="395.52" height="247.2" fill="none" stroke="none" visibility="hidden"></rect></g></svg></g></svg>